<mxfile host="app.diagrams.net" agent="Mozilla/5.0 (Windows NT 10.0; Win64; x64) AppleWebKit/537.36 (KHTML, like Gecko) Chrome/125.0.0.0 Safari/537.36 Edg/125.0.0.0" version="26.2.9">
  <diagram name="第 1 页" id="hsgv7myzvoSu3sDjRQEK">
    <mxGraphModel dx="1194" dy="809" grid="1" gridSize="10" guides="1" tooltips="1" connect="1" arrows="1" fold="1" page="1" pageScale="1" pageWidth="827" pageHeight="1169" math="0" shadow="0">
      <root>
        <mxCell id="0" />
        <mxCell id="1" parent="0" />
        <mxCell id="Zzz4y3QXrmfWHirczxOL-18" value="" style="rounded=0;whiteSpace=wrap;html=1;fillColor=#f5f5f5;fontColor=#333333;strokeColor=#666666;" vertex="1" parent="1">
          <mxGeometry x="1654" y="200" width="280" height="690" as="geometry" />
        </mxCell>
        <mxCell id="jp0kO5IZLnnAff3FtfDi-16" value="" style="group" parent="1" vertex="1" connectable="0">
          <mxGeometry x="40" y="522.5" width="60" height="80" as="geometry" />
        </mxCell>
        <mxCell id="jp0kO5IZLnnAff3FtfDi-14" value="" style="points=[[0.35,0,0],[0.98,0.51,0],[1,0.71,0],[0.67,1,0],[0,0.795,0],[0,0.65,0]];verticalLabelPosition=bottom;sketch=0;html=1;verticalAlign=top;aspect=fixed;align=center;pointerEvents=1;shape=mxgraph.cisco19.user;fillColor=#005073;strokeColor=none;" parent="jp0kO5IZLnnAff3FtfDi-16" vertex="1">
          <mxGeometry x="5" width="50" height="50" as="geometry" />
        </mxCell>
        <mxCell id="jp0kO5IZLnnAff3FtfDi-15" value="客户端" style="text;html=1;align=center;verticalAlign=middle;resizable=0;points=[];autosize=1;strokeColor=none;fillColor=none;" parent="jp0kO5IZLnnAff3FtfDi-16" vertex="1">
          <mxGeometry y="50" width="60" height="30" as="geometry" />
        </mxCell>
        <mxCell id="jp0kO5IZLnnAff3FtfDi-34" style="edgeStyle=orthogonalEdgeStyle;rounded=0;orthogonalLoop=1;jettySize=auto;html=1;" parent="1" source="jp0kO5IZLnnAff3FtfDi-14" target="jp0kO5IZLnnAff3FtfDi-39" edge="1">
          <mxGeometry relative="1" as="geometry">
            <mxPoint x="301.692" y="390.0319999999999" as="targetPoint" />
          </mxGeometry>
        </mxCell>
        <mxCell id="jp0kO5IZLnnAff3FtfDi-43" value="请求DNS解析" style="edgeLabel;html=1;align=center;verticalAlign=middle;resizable=0;points=[];" parent="jp0kO5IZLnnAff3FtfDi-34" vertex="1" connectable="0">
          <mxGeometry x="0.7022" relative="1" as="geometry">
            <mxPoint as="offset" />
          </mxGeometry>
        </mxCell>
        <mxCell id="jp0kO5IZLnnAff3FtfDi-41" style="edgeStyle=orthogonalEdgeStyle;rounded=0;orthogonalLoop=1;jettySize=auto;html=1;exitX=0.98;exitY=0.51;exitDx=0;exitDy=0;exitPerimeter=0;" parent="1" source="jp0kO5IZLnnAff3FtfDi-14" target="jp0kO5IZLnnAff3FtfDi-38" edge="1">
          <mxGeometry relative="1" as="geometry" />
        </mxCell>
        <mxCell id="jp0kO5IZLnnAff3FtfDi-44" value="通过DHCP获取IP地址、DNS、网关等信息" style="edgeLabel;html=1;align=center;verticalAlign=middle;resizable=0;points=[];" parent="jp0kO5IZLnnAff3FtfDi-41" vertex="1" connectable="0">
          <mxGeometry x="0.5341" y="4" relative="1" as="geometry">
            <mxPoint as="offset" />
          </mxGeometry>
        </mxCell>
        <mxCell id="jp0kO5IZLnnAff3FtfDi-49" value="" style="group" parent="1" vertex="1" connectable="0">
          <mxGeometry x="230" y="210" width="550" height="680" as="geometry" />
        </mxCell>
        <mxCell id="jp0kO5IZLnnAff3FtfDi-65" value="" style="group" parent="jp0kO5IZLnnAff3FtfDi-49" vertex="1" connectable="0">
          <mxGeometry x="260" y="-30" width="170" height="710" as="geometry" />
        </mxCell>
        <mxCell id="jp0kO5IZLnnAff3FtfDi-62" value="&lt;div&gt;&lt;span style=&quot;background-color: transparent; color: light-dark(rgb(0, 0, 0), rgb(255, 255, 255));&quot;&gt;WEB服务器&lt;/span&gt;&lt;/div&gt;&lt;span style=&quot;text-align: left;&quot;&gt;&lt;/span&gt;" style="text;html=1;align=center;verticalAlign=middle;resizable=0;points=[];autosize=1;strokeColor=none;fillColor=none;" parent="jp0kO5IZLnnAff3FtfDi-65" vertex="1">
          <mxGeometry width="90" height="30" as="geometry" />
        </mxCell>
        <mxCell id="jp0kO5IZLnnAff3FtfDi-59" value="" style="whiteSpace=wrap;html=1;fillColor=#f5f5f5;fontColor=#333333;strokeColor=#666666;" parent="jp0kO5IZLnnAff3FtfDi-65" vertex="1">
          <mxGeometry y="25" width="170" height="680" as="geometry" />
        </mxCell>
        <mxCell id="jp0kO5IZLnnAff3FtfDi-3" value="" style="group" parent="jp0kO5IZLnnAff3FtfDi-49" vertex="1" connectable="0">
          <mxGeometry x="295" y="58.5" width="118.25" height="123" as="geometry" />
        </mxCell>
        <object label="" nginx01="" id="jp0kO5IZLnnAff3FtfDi-1">
          <mxCell style="verticalLabelPosition=bottom;sketch=0;aspect=fixed;html=1;verticalAlign=top;strokeColor=none;align=center;outlineConnect=0;shape=mxgraph.citrix.web_server;" parent="jp0kO5IZLnnAff3FtfDi-3" vertex="1">
            <mxGeometry width="76.5" height="90" as="geometry" />
          </mxCell>
        </object>
        <mxCell id="jp0kO5IZLnnAff3FtfDi-2" value="&lt;div style=&quot;text-align: center;&quot;&gt;&lt;span style=&quot;background-color: transparent; color: light-dark(rgb(0, 0, 0), rgb(255, 255, 255)); text-align: left;&quot;&gt;主机名: nginx01.mall.com&lt;/span&gt;&lt;br&gt;&lt;/div&gt;&lt;div&gt;IP: 192.168.20.81&lt;/div&gt;" style="text;html=1;align=left;verticalAlign=middle;resizable=0;points=[];autosize=1;strokeColor=none;fillColor=none;" parent="jp0kO5IZLnnAff3FtfDi-49" vertex="1">
          <mxGeometry x="270" width="160" height="40" as="geometry" />
        </mxCell>
        <mxCell id="jp0kO5IZLnnAff3FtfDi-48" value="" style="group" parent="jp0kO5IZLnnAff3FtfDi-49" vertex="1" connectable="0">
          <mxGeometry width="170" height="142.5" as="geometry" />
        </mxCell>
        <mxCell id="jp0kO5IZLnnAff3FtfDi-39" value="" style="verticalLabelPosition=bottom;sketch=0;aspect=fixed;html=1;verticalAlign=top;strokeColor=none;align=center;outlineConnect=0;shape=mxgraph.citrix.dns_server;" parent="jp0kO5IZLnnAff3FtfDi-48" vertex="1">
          <mxGeometry x="39.5" y="50" width="76.5" height="92.5" as="geometry" />
        </mxCell>
        <mxCell id="jp0kO5IZLnnAff3FtfDi-40" value="&lt;div style=&quot;text-align: center;&quot;&gt;&lt;span style=&quot;background-color: transparent; color: light-dark(rgb(0, 0, 0), rgb(255, 255, 255));&quot;&gt;DNS&lt;/span&gt;&lt;/div&gt;主机名: dns-dhcp.mall.com&lt;div&gt;IP: 192.168.20.83&lt;br&gt;&lt;/div&gt;" style="text;html=1;align=left;verticalAlign=middle;resizable=0;points=[];autosize=1;strokeColor=none;fillColor=none;" parent="jp0kO5IZLnnAff3FtfDi-48" vertex="1">
          <mxGeometry y="-10" width="170" height="60" as="geometry" />
        </mxCell>
        <mxCell id="jp0kO5IZLnnAff3FtfDi-33" value="&lt;font style=&quot;font-size: 10px;&quot;&gt;Keepalived&lt;/font&gt;" style="text;html=1;align=center;verticalAlign=middle;resizable=0;points=[];autosize=1;strokeColor=none;fillColor=none;fontColor=default;fontFamily=Helvetica;textDirection=ltr;" parent="jp0kO5IZLnnAff3FtfDi-49" vertex="1">
          <mxGeometry x="310" y="330" width="50" height="40" as="geometry" />
        </mxCell>
        <mxCell id="jp0kO5IZLnnAff3FtfDi-77" value="请求转发到k8s-svc" style="text;html=1;align=center;verticalAlign=middle;resizable=0;points=[];autosize=1;strokeColor=none;fillColor=none;" parent="jp0kO5IZLnnAff3FtfDi-49" vertex="1">
          <mxGeometry x="428" y="340" width="120" height="30" as="geometry" />
        </mxCell>
        <mxCell id="jp0kO5IZLnnAff3FtfDi-51" value="" style="group" parent="1" vertex="1" connectable="0">
          <mxGeometry x="230" y="740" width="413.25" height="155" as="geometry" />
        </mxCell>
        <mxCell id="jp0kO5IZLnnAff3FtfDi-4" value="" style="group" parent="jp0kO5IZLnnAff3FtfDi-51" vertex="1" connectable="0">
          <mxGeometry x="295" width="118.25" height="155" as="geometry" />
        </mxCell>
        <object label="" nginx01="" id="jp0kO5IZLnnAff3FtfDi-5">
          <mxCell style="verticalLabelPosition=bottom;sketch=0;aspect=fixed;html=1;verticalAlign=top;strokeColor=none;align=center;outlineConnect=0;shape=mxgraph.citrix.web_server;" parent="jp0kO5IZLnnAff3FtfDi-4" vertex="1">
            <mxGeometry width="76.5" height="90" as="geometry" />
          </mxCell>
        </object>
        <mxCell id="jp0kO5IZLnnAff3FtfDi-6" value="&lt;div&gt;&lt;span style=&quot;text-align: left; background-color: transparent; color: light-dark(rgb(0, 0, 0), rgb(255, 255, 255));&quot;&gt;主机名: nginx02.mall.com&lt;/span&gt;&lt;br&gt;&lt;/div&gt;&lt;div style=&quot;text-align: left;&quot;&gt;IP: 192.168.20.82&lt;/div&gt;" style="text;html=1;align=center;verticalAlign=middle;resizable=0;points=[];autosize=1;strokeColor=none;fillColor=none;" parent="jp0kO5IZLnnAff3FtfDi-4" vertex="1">
          <mxGeometry x="-29.75" y="105" width="160" height="40" as="geometry" />
        </mxCell>
        <mxCell id="jp0kO5IZLnnAff3FtfDi-50" value="" style="group" parent="jp0kO5IZLnnAff3FtfDi-51" vertex="1" connectable="0">
          <mxGeometry width="170" height="155" as="geometry" />
        </mxCell>
        <mxCell id="jp0kO5IZLnnAff3FtfDi-38" value="" style="verticalLabelPosition=bottom;sketch=0;aspect=fixed;html=1;verticalAlign=top;strokeColor=none;align=center;outlineConnect=0;shape=mxgraph.citrix.dhcp_server;" parent="jp0kO5IZLnnAff3FtfDi-50" vertex="1">
          <mxGeometry x="40" width="76" height="90" as="geometry" />
        </mxCell>
        <mxCell id="jp0kO5IZLnnAff3FtfDi-42" value="&lt;div style=&quot;text-align: center;&quot;&gt;&lt;span style=&quot;background-color: transparent; color: light-dark(rgb(0, 0, 0), rgb(255, 255, 255));&quot;&gt;DHCP服务器&lt;/span&gt;&lt;/div&gt;&lt;div style=&quot;text-align: center;&quot;&gt;&lt;span style=&quot;background-color: transparent; color: light-dark(rgb(0, 0, 0), rgb(255, 255, 255));&quot;&gt;主机名: dns-dhcp.mall.com&lt;/span&gt;&lt;/div&gt;&lt;div&gt;IP: 192.168.20.83&lt;/div&gt;" style="text;html=1;align=left;verticalAlign=middle;resizable=0;points=[];autosize=1;strokeColor=none;fillColor=none;" parent="jp0kO5IZLnnAff3FtfDi-50" vertex="1">
          <mxGeometry y="95" width="170" height="60" as="geometry" />
        </mxCell>
        <mxCell id="jp0kO5IZLnnAff3FtfDi-24" value="" style="sketch=0;pointerEvents=1;shadow=0;dashed=0;html=1;strokeColor=none;fillColor=#505050;labelPosition=center;verticalLabelPosition=bottom;verticalAlign=top;outlineConnect=0;align=center;shape=mxgraph.office.communications.voip_gateway;" parent="1" vertex="1">
          <mxGeometry x="537" y="540" width="51" height="15" as="geometry" />
        </mxCell>
        <mxCell id="jp0kO5IZLnnAff3FtfDi-37" style="edgeStyle=orthogonalEdgeStyle;rounded=0;orthogonalLoop=1;jettySize=auto;html=1;exitX=0.98;exitY=0.51;exitDx=0;exitDy=0;exitPerimeter=0;" parent="1" source="jp0kO5IZLnnAff3FtfDi-14" target="jp0kO5IZLnnAff3FtfDi-24" edge="1">
          <mxGeometry relative="1" as="geometry" />
        </mxCell>
        <mxCell id="jp0kO5IZLnnAff3FtfDi-47" value="请求发送到keepalived的VIP地址" style="edgeLabel;html=1;align=center;verticalAlign=middle;resizable=0;points=[];" parent="jp0kO5IZLnnAff3FtfDi-37" vertex="1" connectable="0">
          <mxGeometry x="0.1437" y="-1" relative="1" as="geometry">
            <mxPoint x="52" y="6" as="offset" />
          </mxGeometry>
        </mxCell>
        <mxCell id="jp0kO5IZLnnAff3FtfDi-27" style="edgeStyle=orthogonalEdgeStyle;rounded=0;orthogonalLoop=1;jettySize=auto;html=1;dashed=1;" parent="1" source="jp0kO5IZLnnAff3FtfDi-24" target="jp0kO5IZLnnAff3FtfDi-1" edge="1">
          <mxGeometry relative="1" as="geometry" />
        </mxCell>
        <mxCell id="jp0kO5IZLnnAff3FtfDi-29" style="edgeStyle=orthogonalEdgeStyle;rounded=0;orthogonalLoop=1;jettySize=auto;html=1;strokeColor=default;dashed=1;" parent="1" source="jp0kO5IZLnnAff3FtfDi-24" target="jp0kO5IZLnnAff3FtfDi-5" edge="1">
          <mxGeometry relative="1" as="geometry">
            <mxPoint x="563.3000000000002" y="555" as="targetPoint" />
          </mxGeometry>
        </mxCell>
        <mxCell id="jp0kO5IZLnnAff3FtfDi-76" value="" style="group" parent="1" vertex="1" connectable="0">
          <mxGeometry x="900" y="168" width="540" height="722" as="geometry" />
        </mxCell>
        <mxCell id="jp0kO5IZLnnAff3FtfDi-57" value="" style="whiteSpace=wrap;html=1;fillColor=#f5f5f5;fontColor=#333333;strokeColor=#666666;" parent="jp0kO5IZLnnAff3FtfDi-76" vertex="1">
          <mxGeometry y="30" width="540" height="692" as="geometry" />
        </mxCell>
        <mxCell id="jp0kO5IZLnnAff3FtfDi-68" style="edgeStyle=orthogonalEdgeStyle;rounded=0;orthogonalLoop=1;jettySize=auto;html=1;" parent="jp0kO5IZLnnAff3FtfDi-76" source="jp0kO5IZLnnAff3FtfDi-52" target="jp0kO5IZLnnAff3FtfDi-53" edge="1">
          <mxGeometry relative="1" as="geometry" />
        </mxCell>
        <mxCell id="jp0kO5IZLnnAff3FtfDi-52" value="" style="verticalLabelPosition=bottom;sketch=0;aspect=fixed;html=1;verticalAlign=top;strokeColor=none;align=center;outlineConnect=0;shape=mxgraph.citrix.xenapp_server;" parent="jp0kO5IZLnnAff3FtfDi-76" vertex="1">
          <mxGeometry x="58.69565217391305" y="102" width="76" height="89" as="geometry" />
        </mxCell>
        <mxCell id="jp0kO5IZLnnAff3FtfDi-53" value="" style="verticalLabelPosition=bottom;sketch=0;aspect=fixed;html=1;verticalAlign=top;strokeColor=none;align=center;outlineConnect=0;shape=mxgraph.citrix.xenapp_server;" parent="jp0kO5IZLnnAff3FtfDi-76" vertex="1">
          <mxGeometry x="58.69565217391305" y="335" width="76" height="89" as="geometry" />
        </mxCell>
        <mxCell id="jp0kO5IZLnnAff3FtfDi-69" style="edgeStyle=orthogonalEdgeStyle;rounded=0;orthogonalLoop=1;jettySize=auto;html=1;" parent="jp0kO5IZLnnAff3FtfDi-76" source="jp0kO5IZLnnAff3FtfDi-54" target="jp0kO5IZLnnAff3FtfDi-53" edge="1">
          <mxGeometry relative="1" as="geometry" />
        </mxCell>
        <mxCell id="jp0kO5IZLnnAff3FtfDi-54" value="" style="verticalLabelPosition=bottom;sketch=0;aspect=fixed;html=1;verticalAlign=top;strokeColor=none;align=center;outlineConnect=0;shape=mxgraph.citrix.xenapp_server;" parent="jp0kO5IZLnnAff3FtfDi-76" vertex="1">
          <mxGeometry x="58.69565217391305" y="582" width="76" height="89" as="geometry" />
        </mxCell>
        <mxCell id="jp0kO5IZLnnAff3FtfDi-55" value="&lt;div style=&quot;text-align: center;&quot;&gt;&lt;span style=&quot;background-color: transparent; color: light-dark(rgb(0, 0, 0), rgb(255, 255, 255)); text-align: left;&quot;&gt;主机名: k8s-node01.mall.com&lt;/span&gt;&lt;br&gt;&lt;/div&gt;&lt;div&gt;IP: 192.168.20.121&lt;/div&gt;" style="text;html=1;align=left;verticalAlign=middle;resizable=0;points=[];autosize=1;strokeColor=none;fillColor=none;" parent="jp0kO5IZLnnAff3FtfDi-76" vertex="1">
          <mxGeometry x="58.69565217391305" y="52" width="180" height="40" as="geometry" />
        </mxCell>
        <mxCell id="jp0kO5IZLnnAff3FtfDi-56" value="&lt;div style=&quot;text-align: center;&quot;&gt;&lt;span style=&quot;background-color: transparent; color: light-dark(rgb(0, 0, 0), rgb(255, 255, 255)); text-align: left;&quot;&gt;主机名: k8s-master01.mall.com&lt;/span&gt;&lt;br&gt;&lt;/div&gt;&lt;div&gt;IP: 192.168.20.111&lt;/div&gt;" style="text;html=1;align=left;verticalAlign=middle;resizable=0;points=[];autosize=1;strokeColor=none;fillColor=none;" parent="jp0kO5IZLnnAff3FtfDi-76" vertex="1">
          <mxGeometry x="109.99826086956523" y="442" width="190" height="40" as="geometry" />
        </mxCell>
        <mxCell id="jp0kO5IZLnnAff3FtfDi-58" value="Kubernetes集群" style="text;html=1;align=center;verticalAlign=middle;resizable=0;points=[];autosize=1;strokeColor=none;fillColor=none;" parent="jp0kO5IZLnnAff3FtfDi-76" vertex="1">
          <mxGeometry width="110" height="30" as="geometry" />
        </mxCell>
        <mxCell id="jp0kO5IZLnnAff3FtfDi-67" value="&lt;div style=&quot;text-align: center;&quot;&gt;&lt;span style=&quot;background-color: transparent; color: light-dark(rgb(0, 0, 0), rgb(255, 255, 255)); text-align: left;&quot;&gt;主机名: k8s-node02.mall.com&lt;/span&gt;&lt;br&gt;&lt;/div&gt;&lt;div&gt;IP: 192.168.20.122&lt;/div&gt;" style="text;html=1;align=left;verticalAlign=middle;resizable=0;points=[];autosize=1;strokeColor=none;fillColor=none;" parent="jp0kO5IZLnnAff3FtfDi-76" vertex="1">
          <mxGeometry x="58.69565217391305" y="682" width="180" height="40" as="geometry" />
        </mxCell>
        <mxCell id="1cv5DayEHRq4SzB9kq6g-19" value="" style="group" parent="jp0kO5IZLnnAff3FtfDi-76" vertex="1" connectable="0">
          <mxGeometry x="341" y="112" width="110" height="78" as="geometry" />
        </mxCell>
        <mxCell id="1cv5DayEHRq4SzB9kq6g-17" value="" style="group" parent="1cv5DayEHRq4SzB9kq6g-19" vertex="1" connectable="0">
          <mxGeometry x="5" width="100" height="48" as="geometry" />
        </mxCell>
        <mxCell id="1cv5DayEHRq4SzB9kq6g-1" value="" style="aspect=fixed;sketch=0;html=1;dashed=0;whitespace=wrap;verticalLabelPosition=bottom;verticalAlign=top;fillColor=#2875E2;strokeColor=#ffffff;points=[[0.005,0.63,0],[0.1,0.2,0],[0.9,0.2,0],[0.5,0,0],[0.995,0.63,0],[0.72,0.99,0],[0.5,1,0],[0.28,0.99,0]];shape=mxgraph.kubernetes.icon2;prIcon=pod" parent="1cv5DayEHRq4SzB9kq6g-17" vertex="1">
          <mxGeometry width="50" height="48" as="geometry" />
        </mxCell>
        <mxCell id="1cv5DayEHRq4SzB9kq6g-2" value="" style="aspect=fixed;sketch=0;html=1;dashed=0;whitespace=wrap;verticalLabelPosition=bottom;verticalAlign=top;fillColor=#2875E2;strokeColor=#ffffff;points=[[0.005,0.63,0],[0.1,0.2,0],[0.9,0.2,0],[0.5,0,0],[0.995,0.63,0],[0.72,0.99,0],[0.5,1,0],[0.28,0.99,0]];shape=mxgraph.kubernetes.icon2;prIcon=pod" parent="1cv5DayEHRq4SzB9kq6g-17" vertex="1">
          <mxGeometry x="50" width="50" height="48" as="geometry" />
        </mxCell>
        <mxCell id="1cv5DayEHRq4SzB9kq6g-18" value="Mall-Deployment" style="text;html=1;align=center;verticalAlign=middle;resizable=0;points=[];autosize=1;strokeColor=none;fillColor=none;" parent="1cv5DayEHRq4SzB9kq6g-19" vertex="1">
          <mxGeometry y="48" width="110" height="30" as="geometry" />
        </mxCell>
        <mxCell id="Zzz4y3QXrmfWHirczxOL-6" value="" style="group" vertex="1" connectable="0" parent="jp0kO5IZLnnAff3FtfDi-76">
          <mxGeometry x="341" y="512" width="110" height="78" as="geometry" />
        </mxCell>
        <mxCell id="Zzz4y3QXrmfWHirczxOL-7" value="" style="group" vertex="1" connectable="0" parent="Zzz4y3QXrmfWHirczxOL-6">
          <mxGeometry x="5" width="100" height="48" as="geometry" />
        </mxCell>
        <mxCell id="Zzz4y3QXrmfWHirczxOL-9" value="" style="aspect=fixed;sketch=0;html=1;dashed=0;whitespace=wrap;verticalLabelPosition=bottom;verticalAlign=top;fillColor=#2875E2;strokeColor=#ffffff;points=[[0.005,0.63,0],[0.1,0.2,0],[0.9,0.2,0],[0.5,0,0],[0.995,0.63,0],[0.72,0.99,0],[0.5,1,0],[0.28,0.99,0]];shape=mxgraph.kubernetes.icon2;prIcon=pod" vertex="1" parent="Zzz4y3QXrmfWHirczxOL-7">
          <mxGeometry x="25" y="1" width="50" height="48" as="geometry" />
        </mxCell>
        <mxCell id="Zzz4y3QXrmfWHirczxOL-10" value="Grafana" style="text;html=1;align=center;verticalAlign=middle;resizable=0;points=[];autosize=1;strokeColor=none;fillColor=none;" vertex="1" parent="Zzz4y3QXrmfWHirczxOL-6">
          <mxGeometry x="20" y="48" width="70" height="30" as="geometry" />
        </mxCell>
        <mxCell id="Zzz4y3QXrmfWHirczxOL-1" value="" style="group" vertex="1" connectable="0" parent="jp0kO5IZLnnAff3FtfDi-76">
          <mxGeometry x="344" y="339" width="110" height="78" as="geometry" />
        </mxCell>
        <mxCell id="Zzz4y3QXrmfWHirczxOL-2" value="" style="group" vertex="1" connectable="0" parent="Zzz4y3QXrmfWHirczxOL-1">
          <mxGeometry x="5" width="100" height="48" as="geometry" />
        </mxCell>
        <mxCell id="Zzz4y3QXrmfWHirczxOL-4" value="" style="aspect=fixed;sketch=0;html=1;dashed=0;whitespace=wrap;verticalLabelPosition=bottom;verticalAlign=top;fillColor=#2875E2;strokeColor=#ffffff;points=[[0.005,0.63,0],[0.1,0.2,0],[0.9,0.2,0],[0.5,0,0],[0.995,0.63,0],[0.72,0.99,0],[0.5,1,0],[0.28,0.99,0]];shape=mxgraph.kubernetes.icon2;prIcon=pod" vertex="1" parent="Zzz4y3QXrmfWHirczxOL-2">
          <mxGeometry x="21" width="50" height="48" as="geometry" />
        </mxCell>
        <mxCell id="Zzz4y3QXrmfWHirczxOL-11" style="edgeStyle=orthogonalEdgeStyle;rounded=0;orthogonalLoop=1;jettySize=auto;html=1;entryX=0.5;entryY=1;entryDx=0;entryDy=0;entryPerimeter=0;" edge="1" parent="jp0kO5IZLnnAff3FtfDi-76" source="Zzz4y3QXrmfWHirczxOL-4" target="1cv5DayEHRq4SzB9kq6g-1">
          <mxGeometry relative="1" as="geometry" />
        </mxCell>
        <mxCell id="Zzz4y3QXrmfWHirczxOL-12" value="" style="edgeStyle=orthogonalEdgeStyle;rounded=0;orthogonalLoop=1;jettySize=auto;html=1;entryX=0.5;entryY=1;entryDx=0;entryDy=0;entryPerimeter=0;" edge="1" parent="jp0kO5IZLnnAff3FtfDi-76" source="Zzz4y3QXrmfWHirczxOL-9" target="Zzz4y3QXrmfWHirczxOL-4">
          <mxGeometry relative="1" as="geometry" />
        </mxCell>
        <mxCell id="Zzz4y3QXrmfWHirczxOL-15" value="展示监控数据" style="edgeLabel;html=1;align=center;verticalAlign=middle;resizable=0;points=[];" vertex="1" connectable="0" parent="Zzz4y3QXrmfWHirczxOL-12">
          <mxGeometry x="0.0161" y="2" relative="1" as="geometry">
            <mxPoint as="offset" />
          </mxGeometry>
        </mxCell>
        <mxCell id="Zzz4y3QXrmfWHirczxOL-13" style="edgeStyle=orthogonalEdgeStyle;rounded=0;orthogonalLoop=1;jettySize=auto;html=1;exitX=0.5;exitY=0;exitDx=0;exitDy=0;exitPerimeter=0;entryX=0.5;entryY=1;entryDx=0;entryDy=0;entryPerimeter=0;" edge="1" parent="jp0kO5IZLnnAff3FtfDi-76" source="Zzz4y3QXrmfWHirczxOL-4" target="1cv5DayEHRq4SzB9kq6g-2">
          <mxGeometry relative="1" as="geometry" />
        </mxCell>
        <mxCell id="Zzz4y3QXrmfWHirczxOL-14" value="抓取监控指标" style="edgeLabel;html=1;align=center;verticalAlign=middle;resizable=0;points=[];" vertex="1" connectable="0" parent="Zzz4y3QXrmfWHirczxOL-13">
          <mxGeometry x="-0.4472" y="3" relative="1" as="geometry">
            <mxPoint x="3" y="-81" as="offset" />
          </mxGeometry>
        </mxCell>
        <mxCell id="Zzz4y3QXrmfWHirczxOL-5" value="Prometheus" style="text;html=1;align=center;verticalAlign=middle;resizable=0;points=[];autosize=1;strokeColor=none;fillColor=none;" vertex="1" parent="jp0kO5IZLnnAff3FtfDi-76">
          <mxGeometry x="400" y="372" width="90" height="30" as="geometry" />
        </mxCell>
        <mxCell id="Zzz4y3QXrmfWHirczxOL-71" value="" style="group" vertex="1" connectable="0" parent="jp0kO5IZLnnAff3FtfDi-76">
          <mxGeometry x="170" y="252" width="100" height="113" as="geometry" />
        </mxCell>
        <mxCell id="Zzz4y3QXrmfWHirczxOL-67" value="" style="aspect=fixed;sketch=0;html=1;dashed=0;whitespace=wrap;verticalLabelPosition=bottom;verticalAlign=top;fillColor=#2875E2;strokeColor=#ffffff;points=[[0.005,0.63,0],[0.1,0.2,0],[0.9,0.2,0],[0.5,0,0],[0.995,0.63,0],[0.72,0.99,0],[0.5,1,0],[0.28,0.99,0]];shape=mxgraph.kubernetes.icon2;prIcon=pod" vertex="1" parent="Zzz4y3QXrmfWHirczxOL-71">
          <mxGeometry width="50" height="48" as="geometry" />
        </mxCell>
        <mxCell id="Zzz4y3QXrmfWHirczxOL-68" value="" style="aspect=fixed;sketch=0;html=1;dashed=0;whitespace=wrap;verticalLabelPosition=bottom;verticalAlign=top;fillColor=#2875E2;strokeColor=#ffffff;points=[[0.005,0.63,0],[0.1,0.2,0],[0.9,0.2,0],[0.5,0,0],[0.995,0.63,0],[0.72,0.99,0],[0.5,1,0],[0.28,0.99,0]];shape=mxgraph.kubernetes.icon2;prIcon=pod" vertex="1" parent="Zzz4y3QXrmfWHirczxOL-71">
          <mxGeometry x="50" width="50" height="48" as="geometry" />
        </mxCell>
        <mxCell id="Zzz4y3QXrmfWHirczxOL-69" value="" style="aspect=fixed;sketch=0;html=1;dashed=0;whitespace=wrap;verticalLabelPosition=bottom;verticalAlign=top;fillColor=#2875E2;strokeColor=#ffffff;points=[[0.005,0.63,0],[0.1,0.2,0],[0.9,0.2,0],[0.5,0,0],[0.995,0.63,0],[0.72,0.99,0],[0.5,1,0],[0.28,0.99,0]];shape=mxgraph.kubernetes.icon2;prIcon=pod" vertex="1" parent="Zzz4y3QXrmfWHirczxOL-71">
          <mxGeometry x="20" y="35" width="50" height="48" as="geometry" />
        </mxCell>
        <mxCell id="Zzz4y3QXrmfWHirczxOL-70" value="Filebeat" style="text;html=1;align=center;verticalAlign=middle;resizable=0;points=[];autosize=1;strokeColor=none;fillColor=none;" vertex="1" parent="Zzz4y3QXrmfWHirczxOL-71">
          <mxGeometry x="10" y="83" width="70" height="30" as="geometry" />
        </mxCell>
        <mxCell id="jp0kO5IZLnnAff3FtfDi-73" style="edgeStyle=orthogonalEdgeStyle;rounded=0;orthogonalLoop=1;jettySize=auto;html=1;" parent="1" source="jp0kO5IZLnnAff3FtfDi-24" target="jp0kO5IZLnnAff3FtfDi-52" edge="1">
          <mxGeometry relative="1" as="geometry">
            <Array as="points">
              <mxPoint x="780" y="548" />
              <mxPoint x="780" y="315" />
            </Array>
          </mxGeometry>
        </mxCell>
        <mxCell id="jp0kO5IZLnnAff3FtfDi-75" style="edgeStyle=orthogonalEdgeStyle;rounded=0;orthogonalLoop=1;jettySize=auto;html=1;" parent="1" source="jp0kO5IZLnnAff3FtfDi-24" target="jp0kO5IZLnnAff3FtfDi-54" edge="1">
          <mxGeometry relative="1" as="geometry">
            <Array as="points">
              <mxPoint x="780" y="548" />
              <mxPoint x="780" y="795" />
            </Array>
          </mxGeometry>
        </mxCell>
        <mxCell id="jp0kO5IZLnnAff3FtfDi-74" style="edgeStyle=orthogonalEdgeStyle;rounded=0;orthogonalLoop=1;jettySize=auto;html=1;" parent="1" source="jp0kO5IZLnnAff3FtfDi-24" target="jp0kO5IZLnnAff3FtfDi-53" edge="1">
          <mxGeometry relative="1" as="geometry" />
        </mxCell>
        <mxCell id="Zzz4y3QXrmfWHirczxOL-19" value="存储服务器" style="text;html=1;align=center;verticalAlign=middle;resizable=0;points=[];autosize=1;strokeColor=none;fillColor=none;" vertex="1" parent="1">
          <mxGeometry x="1654" y="170" width="80" height="30" as="geometry" />
        </mxCell>
        <mxCell id="Zzz4y3QXrmfWHirczxOL-22" value="" style="group" vertex="1" connectable="0" parent="1">
          <mxGeometry x="1720" y="190" width="130" height="142" as="geometry" />
        </mxCell>
        <mxCell id="Zzz4y3QXrmfWHirczxOL-17" value="" style="verticalLabelPosition=bottom;sketch=0;aspect=fixed;html=1;verticalAlign=top;strokeColor=none;align=center;outlineConnect=0;shape=mxgraph.citrix.database_server;" vertex="1" parent="Zzz4y3QXrmfWHirczxOL-22">
          <mxGeometry x="25" y="52" width="80" height="90" as="geometry" />
        </mxCell>
        <mxCell id="Zzz4y3QXrmfWHirczxOL-21" value="Mysql&lt;br&gt;&lt;div style=&quot;&quot;&gt;&lt;div style=&quot;text-align: left;&quot;&gt;&lt;span style=&quot;background-color: transparent; color: light-dark(rgb(0, 0, 0), rgb(255, 255, 255));&quot;&gt;主机名: db.mall.com&lt;/span&gt;&lt;/div&gt;&lt;span style=&quot;background-color: transparent; color: light-dark(rgb(0, 0, 0), rgb(255, 255, 255));&quot;&gt;&lt;div style=&quot;text-align: left;&quot;&gt;&lt;span style=&quot;background-color: transparent; color: light-dark(rgb(0, 0, 0), rgb(255, 255, 255));&quot;&gt;IP: 192.168.20.84&lt;/span&gt;&lt;/div&gt;&lt;/span&gt;&lt;/div&gt;" style="text;html=1;align=center;verticalAlign=middle;resizable=0;points=[];autosize=1;strokeColor=none;fillColor=none;" vertex="1" parent="Zzz4y3QXrmfWHirczxOL-22">
          <mxGeometry width="130" height="60" as="geometry" />
        </mxCell>
        <mxCell id="Zzz4y3QXrmfWHirczxOL-23" value="" style="group" vertex="1" connectable="0" parent="1">
          <mxGeometry x="1720" y="360" width="130" height="142" as="geometry" />
        </mxCell>
        <mxCell id="Zzz4y3QXrmfWHirczxOL-24" value="" style="verticalLabelPosition=bottom;sketch=0;aspect=fixed;html=1;verticalAlign=top;strokeColor=none;align=center;outlineConnect=0;shape=mxgraph.citrix.database_server;" vertex="1" parent="Zzz4y3QXrmfWHirczxOL-23">
          <mxGeometry x="25" y="52" width="80" height="90" as="geometry" />
        </mxCell>
        <mxCell id="Zzz4y3QXrmfWHirczxOL-25" value="Redis&lt;br&gt;&lt;div style=&quot;&quot;&gt;&lt;div style=&quot;text-align: left;&quot;&gt;&lt;span style=&quot;background-color: transparent; color: light-dark(rgb(0, 0, 0), rgb(255, 255, 255));&quot;&gt;主机名: db.mall.com&lt;/span&gt;&lt;/div&gt;&lt;span style=&quot;background-color: transparent; color: light-dark(rgb(0, 0, 0), rgb(255, 255, 255));&quot;&gt;&lt;div style=&quot;text-align: left;&quot;&gt;&lt;span style=&quot;background-color: transparent; color: light-dark(rgb(0, 0, 0), rgb(255, 255, 255));&quot;&gt;IP: 192.168.20.84&lt;/span&gt;&lt;/div&gt;&lt;/span&gt;&lt;/div&gt;" style="text;html=1;align=center;verticalAlign=middle;resizable=0;points=[];autosize=1;strokeColor=none;fillColor=none;" vertex="1" parent="Zzz4y3QXrmfWHirczxOL-23">
          <mxGeometry width="130" height="60" as="geometry" />
        </mxCell>
        <mxCell id="Zzz4y3QXrmfWHirczxOL-26" value="" style="group" vertex="1" connectable="0" parent="1">
          <mxGeometry x="1720" y="560" width="130" height="142" as="geometry" />
        </mxCell>
        <mxCell id="Zzz4y3QXrmfWHirczxOL-27" value="" style="verticalLabelPosition=bottom;sketch=0;aspect=fixed;html=1;verticalAlign=top;strokeColor=none;align=center;outlineConnect=0;shape=mxgraph.citrix.database_server;" vertex="1" parent="Zzz4y3QXrmfWHirczxOL-26">
          <mxGeometry x="25" y="52" width="80" height="90" as="geometry" />
        </mxCell>
        <mxCell id="Zzz4y3QXrmfWHirczxOL-28" value="Elasticsearch&lt;br&gt;&lt;div style=&quot;&quot;&gt;&lt;div style=&quot;text-align: left;&quot;&gt;&lt;span style=&quot;background-color: transparent; color: light-dark(rgb(0, 0, 0), rgb(255, 255, 255));&quot;&gt;主机名: db.mall.com&lt;/span&gt;&lt;/div&gt;&lt;span style=&quot;background-color: transparent; color: light-dark(rgb(0, 0, 0), rgb(255, 255, 255));&quot;&gt;&lt;div style=&quot;text-align: left;&quot;&gt;&lt;span style=&quot;background-color: transparent; color: light-dark(rgb(0, 0, 0), rgb(255, 255, 255));&quot;&gt;IP: 192.168.20.84&lt;/span&gt;&lt;/div&gt;&lt;/span&gt;&lt;/div&gt;" style="text;html=1;align=center;verticalAlign=middle;resizable=0;points=[];autosize=1;strokeColor=none;fillColor=none;" vertex="1" parent="Zzz4y3QXrmfWHirczxOL-26">
          <mxGeometry width="130" height="60" as="geometry" />
        </mxCell>
        <mxCell id="Zzz4y3QXrmfWHirczxOL-29" value="" style="group" vertex="1" connectable="0" parent="1">
          <mxGeometry x="1720" y="750" width="130" height="142" as="geometry" />
        </mxCell>
        <mxCell id="Zzz4y3QXrmfWHirczxOL-30" value="" style="verticalLabelPosition=bottom;sketch=0;aspect=fixed;html=1;verticalAlign=top;strokeColor=none;align=center;outlineConnect=0;shape=mxgraph.citrix.database_server;" vertex="1" parent="Zzz4y3QXrmfWHirczxOL-29">
          <mxGeometry x="25" y="52" width="80" height="90" as="geometry" />
        </mxCell>
        <mxCell id="Zzz4y3QXrmfWHirczxOL-31" value="NFS&lt;br&gt;&lt;div style=&quot;&quot;&gt;&lt;div style=&quot;text-align: left;&quot;&gt;&lt;span style=&quot;background-color: transparent; color: light-dark(rgb(0, 0, 0), rgb(255, 255, 255));&quot;&gt;主机名: db.mall.com&lt;/span&gt;&lt;/div&gt;&lt;span style=&quot;background-color: transparent; color: light-dark(rgb(0, 0, 0), rgb(255, 255, 255));&quot;&gt;&lt;div style=&quot;text-align: left;&quot;&gt;&lt;span style=&quot;background-color: transparent; color: light-dark(rgb(0, 0, 0), rgb(255, 255, 255));&quot;&gt;IP: 192.168.20.84&lt;/span&gt;&lt;/div&gt;&lt;/span&gt;&lt;/div&gt;" style="text;html=1;align=center;verticalAlign=middle;resizable=0;points=[];autosize=1;strokeColor=none;fillColor=none;" vertex="1" parent="Zzz4y3QXrmfWHirczxOL-29">
          <mxGeometry width="130" height="60" as="geometry" />
        </mxCell>
        <mxCell id="Zzz4y3QXrmfWHirczxOL-32" style="edgeStyle=orthogonalEdgeStyle;rounded=0;orthogonalLoop=1;jettySize=auto;html=1;exitX=0.995;exitY=0.63;exitDx=0;exitDy=0;exitPerimeter=0;" edge="1" parent="1" source="1cv5DayEHRq4SzB9kq6g-2" target="Zzz4y3QXrmfWHirczxOL-17">
          <mxGeometry relative="1" as="geometry">
            <Array as="points">
              <mxPoint x="1640" y="310" />
              <mxPoint x="1640" y="310" />
            </Array>
          </mxGeometry>
        </mxCell>
        <mxCell id="Zzz4y3QXrmfWHirczxOL-33" style="edgeStyle=orthogonalEdgeStyle;rounded=0;orthogonalLoop=1;jettySize=auto;html=1;exitX=0.5;exitY=0;exitDx=0;exitDy=0;exitPerimeter=0;" edge="1" parent="1" source="1cv5DayEHRq4SzB9kq6g-1" target="Zzz4y3QXrmfWHirczxOL-17">
          <mxGeometry relative="1" as="geometry">
            <Array as="points">
              <mxPoint x="1271" y="260" />
            </Array>
          </mxGeometry>
        </mxCell>
        <mxCell id="Zzz4y3QXrmfWHirczxOL-36" value="查询数据库" style="edgeLabel;html=1;align=center;verticalAlign=middle;resizable=0;points=[];" vertex="1" connectable="0" parent="Zzz4y3QXrmfWHirczxOL-33">
          <mxGeometry x="0.1513" y="3" relative="1" as="geometry">
            <mxPoint x="74" y="30" as="offset" />
          </mxGeometry>
        </mxCell>
        <mxCell id="Zzz4y3QXrmfWHirczxOL-34" style="edgeStyle=orthogonalEdgeStyle;rounded=0;orthogonalLoop=1;jettySize=auto;html=1;exitX=0.995;exitY=0.63;exitDx=0;exitDy=0;exitPerimeter=0;" edge="1" parent="1" source="1cv5DayEHRq4SzB9kq6g-2" target="Zzz4y3QXrmfWHirczxOL-24">
          <mxGeometry relative="1" as="geometry">
            <Array as="points">
              <mxPoint x="1540" y="310" />
              <mxPoint x="1540" y="457" />
            </Array>
          </mxGeometry>
        </mxCell>
        <mxCell id="Zzz4y3QXrmfWHirczxOL-35" style="edgeStyle=orthogonalEdgeStyle;rounded=0;orthogonalLoop=1;jettySize=auto;html=1;exitX=0.9;exitY=0.2;exitDx=0;exitDy=0;exitPerimeter=0;" edge="1" parent="1" source="1cv5DayEHRq4SzB9kq6g-1" target="Zzz4y3QXrmfWHirczxOL-24">
          <mxGeometry relative="1" as="geometry">
            <Array as="points">
              <mxPoint x="1540" y="290" />
              <mxPoint x="1540" y="457" />
            </Array>
          </mxGeometry>
        </mxCell>
        <mxCell id="Zzz4y3QXrmfWHirczxOL-37" value="查询缓存" style="edgeLabel;html=1;align=center;verticalAlign=middle;resizable=0;points=[];" vertex="1" connectable="0" parent="Zzz4y3QXrmfWHirczxOL-35">
          <mxGeometry x="0.4769" y="1" relative="1" as="geometry">
            <mxPoint x="18" y="1" as="offset" />
          </mxGeometry>
        </mxCell>
        <mxCell id="Zzz4y3QXrmfWHirczxOL-73" style="edgeStyle=orthogonalEdgeStyle;rounded=0;orthogonalLoop=1;jettySize=auto;html=1;exitX=0.995;exitY=0.63;exitDx=0;exitDy=0;exitPerimeter=0;" edge="1" parent="1" source="Zzz4y3QXrmfWHirczxOL-68" target="Zzz4y3QXrmfWHirczxOL-27">
          <mxGeometry relative="1" as="geometry">
            <Array as="points">
              <mxPoint x="1520" y="450" />
              <mxPoint x="1520" y="657" />
            </Array>
          </mxGeometry>
        </mxCell>
        <mxCell id="Zzz4y3QXrmfWHirczxOL-74" style="edgeStyle=orthogonalEdgeStyle;rounded=0;orthogonalLoop=1;jettySize=auto;html=1;exitX=0.9;exitY=0.2;exitDx=0;exitDy=0;exitPerimeter=0;" edge="1" parent="1" source="Zzz4y3QXrmfWHirczxOL-67" target="Zzz4y3QXrmfWHirczxOL-27">
          <mxGeometry relative="1" as="geometry">
            <Array as="points">
              <mxPoint x="1520" y="430" />
              <mxPoint x="1520" y="657" />
            </Array>
          </mxGeometry>
        </mxCell>
        <mxCell id="Zzz4y3QXrmfWHirczxOL-75" style="edgeStyle=orthogonalEdgeStyle;rounded=0;orthogonalLoop=1;jettySize=auto;html=1;exitX=0.995;exitY=0.63;exitDx=0;exitDy=0;exitPerimeter=0;" edge="1" parent="1" source="Zzz4y3QXrmfWHirczxOL-69" target="Zzz4y3QXrmfWHirczxOL-27">
          <mxGeometry relative="1" as="geometry">
            <Array as="points">
              <mxPoint x="1520" y="485" />
              <mxPoint x="1520" y="657" />
            </Array>
          </mxGeometry>
        </mxCell>
        <mxCell id="Zzz4y3QXrmfWHirczxOL-76" value="上传日志" style="edgeLabel;html=1;align=center;verticalAlign=middle;resizable=0;points=[];" vertex="1" connectable="0" parent="Zzz4y3QXrmfWHirczxOL-75">
          <mxGeometry x="0.5393" y="-1" relative="1" as="geometry">
            <mxPoint x="34" y="12" as="offset" />
          </mxGeometry>
        </mxCell>
        <mxCell id="Zzz4y3QXrmfWHirczxOL-77" style="edgeStyle=orthogonalEdgeStyle;rounded=0;orthogonalLoop=1;jettySize=auto;html=1;exitX=0.72;exitY=0.99;exitDx=0;exitDy=0;exitPerimeter=0;" edge="1" parent="1" source="1cv5DayEHRq4SzB9kq6g-1" target="Zzz4y3QXrmfWHirczxOL-30">
          <mxGeometry relative="1" as="geometry">
            <Array as="points">
              <mxPoint x="1480" y="327" />
              <mxPoint x="1480" y="847" />
            </Array>
          </mxGeometry>
        </mxCell>
        <mxCell id="Zzz4y3QXrmfWHirczxOL-78" style="edgeStyle=orthogonalEdgeStyle;rounded=0;orthogonalLoop=1;jettySize=auto;html=1;exitX=0.995;exitY=0.63;exitDx=0;exitDy=0;exitPerimeter=0;" edge="1" parent="1" source="1cv5DayEHRq4SzB9kq6g-2" target="Zzz4y3QXrmfWHirczxOL-30">
          <mxGeometry relative="1" as="geometry">
            <Array as="points">
              <mxPoint x="1346" y="330" />
              <mxPoint x="1480" y="330" />
              <mxPoint x="1480" y="847" />
            </Array>
          </mxGeometry>
        </mxCell>
        <mxCell id="Zzz4y3QXrmfWHirczxOL-79" value="上传/读取商品图片" style="edgeLabel;html=1;align=center;verticalAlign=middle;resizable=0;points=[];" vertex="1" connectable="0" parent="Zzz4y3QXrmfWHirczxOL-78">
          <mxGeometry x="0.5798" y="-4" relative="1" as="geometry">
            <mxPoint x="32" y="9" as="offset" />
          </mxGeometry>
        </mxCell>
      </root>
    </mxGraphModel>
  </diagram>
</mxfile>
